<?xml version="1.0" standalone="no"?>
<!DOCTYPE svg PUBLIC "-//W3C//DTD SVG 20010904//EN"
 "http://www.w3.org/TR/2001/REC-SVG-20010904/DTD/svg10.dtd">
<svg version="1.0" xmlns="http://www.w3.org/2000/svg"
 width="512.000000pt" height="512.000000pt" viewBox="0 0 512.000000 512.000000"
 preserveAspectRatio="xMidYMid meet">
<metadata>
Created by potrace 1.11, written by Peter Selinger 2001-2013
</metadata>
<g transform="translate(0.000000,512.000000) scale(0.100000,-0.100000)"
fill="#000000" stroke="none">
<path d="M3431 4811 c-67 -18 -110 -59 -201 -195 -36 -53 -74 -107 -85 -120
-11 -13 -42 -55 -68 -94 -42 -63 -50 -70 -70 -63 -35 13 -94 32 -119 37 -13 2
-45 9 -73 15 -77 16 -143 22 -230 22 -71 -1 -101 -4 -176 -18 -45 -9 -151 -69
-184 -104 -35 -37 -80 -99 -211 -289 -31 -46 -62 -89 -68 -95 -7 -7 -36 -48
-65 -92 -29 -44 -56 -82 -60 -85 -9 -7 -81 -109 -81 -115 0 -3 -5 -11 -10 -18
-6 -7 -24 -30 -40 -52 -16 -22 -33 -44 -37 -50 -5 -5 -21 -30 -38 -55 -16 -25
-39 -57 -50 -71 -11 -14 -26 -35 -33 -46 -8 -10 -40 -57 -73 -104 -33 -46 -77
-109 -97 -139 -21 -30 -63 -90 -95 -132 -31 -42 -57 -79 -57 -82 0 -3 -26 -40
-58 -83 -32 -43 -66 -91 -77 -108 -10 -16 -23 -35 -29 -42 -6 -6 -27 -34 -46
-62 -19 -28 -63 -90 -98 -138 -101 -141 -117 -180 -117 -293 0 -95 3 -119 25
-195 20 -66 89 -214 116 -246 8 -8 14 -19 14 -22 0 -4 23 -38 50 -76 28 -38
50 -72 50 -75 0 -4 -40 -64 -90 -134 -49 -70 -95 -135 -102 -145 -7 -10 -34
-48 -60 -84 -62 -84 -72 -129 -51 -224 13 -61 65 -159 121 -229 67 -84 214
-215 282 -250 14 -7 27 -16 30 -20 11 -15 150 -80 226 -104 144 -47 247 -49
344 -9 32 14 54 38 126 143 32 47 62 90 67 95 5 6 42 58 83 117 l74 106 45
-14 c25 -7 49 -15 53 -18 9 -5 150 -35 207 -43 50 -8 197 -7 250 0 70 10 142
36 195 72 57 38 71 54 145 160 170 244 239 340 247 343 4 2 8 8 8 13 0 6 4 15
10 22 21 25 78 106 144 202 38 55 72 102 75 105 3 3 20 25 36 50 29 43 86 124
104 146 5 6 20 29 34 51 14 22 31 46 39 54 7 8 42 57 78 109 35 52 68 97 72
98 4 2 8 8 8 13 0 6 9 20 21 32 11 12 28 36 36 52 9 17 30 48 48 70 18 22 50
67 71 100 21 33 42 62 45 65 14 11 109 151 109 160 0 5 6 13 14 17 23 14 125
173 138 216 7 24 12 86 12 142 -1 80 -7 116 -28 180 -29 84 -76 188 -88 193
-5 2 -8 8 -8 14 0 6 -29 52 -65 104 -36 52 -65 96 -65 99 0 3 21 35 47 73 71
101 202 286 211 297 55 69 68 138 42 231 -50 179 -262 400 -501 523 -174 89
-336 122 -448 92z"/>
</g>
</svg>
